# xmcd CD database file
#
# Track frame offsets:
#	150
#	16013
#	27958
#	46291
#	76210
#	90805
#	101143
#	112365
#	131133
#	150770
#	172017
#	194845
#
# Disc length: 2882 seconds
#
# Revision: 0
# Processed by: cddbd v1.5.2PL0 Copyright (c) Steve Scherf et al.
# Submitted via: CDex 1.51
#
DISCID=920b400c
DTITLE=Edgar Winter - Entrance
DYEAR=1970
DGENRE=Jazz
TTITLE0=Entrance
TTITLE1=Where Have You Gone
TTITLE2=Rise To Fall
TTITLE3=Fire and Ice
TTITLE4=Hung Up
TTITLE5=Back In the Blues
TTITLE6=Re-Entrance
TTITLE7=Tobacco Road
TTITLE8=Jump Right Out
TTITLE9=Peace Pipe
TTITLE10=A Different Game
TTITLE11=Jimmy's Gospel
EXTD=YEAR: 1970
EXTT0=
EXTT1=
EXTT2=
EXTT3=
EXTT4=
EXTT5=
EXTT6=
EXTT7=
EXTT8=
EXTT9=
EXTT10=
EXTT11=
PLAYORDER=
